# xmcd CD database file
#
# Track frame offsets:
#	150
#	20244
#	40945
#	67502
#	94753
#	118428
#	138707
#	165070
#	186067
#	207884
#	224092
#
# Disc length: 3230 seconds
#
# Revision: 2
# Processed by: cddbd v1.5PL3 Copyright (c) Steve Scherf et al.
# Submitted via: CDex 1.51
#
DISCID=9f0c9c0b
DTITLE=Bonny B. - Something's Wrong
DYEAR=2001
DGENRE=Blues
TTITLE0=The Story
TTITLE1=I Don't Smoke
TTITLE2=How Many Times
TTITLE3=Something's Wrong
TTITLE4=Live A Little
TTITLE5=Ashamed
TTITLE6=Slowly Darling
TTITLE7=Cambodia
TTITLE8=Little Angel
TTITLE9=Midnight Blues
TTITLE10=Poor Boy Blues
EXTD=YEAR: 2001
EXTT0=
EXTT1=
EXTT2=
EXTT3=
EXTT4=
EXTT5=
EXTT6=
EXTT7=
EXTT8=
EXTT9=
EXTT10=
PLAYORDER=
